<mxfile host="app.diagrams.net" modified="2023-02-16T08:12:33.633Z" agent="5.0 (Windows)" etag="aMLAhshQVzcf6jIK7qYu" version="20.8.20" type="github">
  <diagram name="Strona-1" id="IUliY9bHjlRIgYf-IqNA">
    <mxGraphModel dx="1434" dy="739" grid="1" gridSize="10" guides="1" tooltips="1" connect="1" arrows="1" fold="1" page="1" pageScale="1" pageWidth="827" pageHeight="1169" math="0" shadow="0">
      <root>
        <mxCell id="0" />
        <mxCell id="1" parent="0" />
        <mxCell id="MLQNLPn-X8Rku47YBQUl-9" style="edgeStyle=orthogonalEdgeStyle;rounded=0;orthogonalLoop=1;jettySize=auto;html=1;exitX=0.5;exitY=1;exitDx=0;exitDy=0;" edge="1" parent="1" source="MLQNLPn-X8Rku47YBQUl-1">
          <mxGeometry relative="1" as="geometry">
            <mxPoint x="454" y="170" as="targetPoint" />
          </mxGeometry>
        </mxCell>
        <mxCell id="MLQNLPn-X8Rku47YBQUl-1" value="Start" style="ellipse;whiteSpace=wrap;html=1;aspect=fixed;" vertex="1" parent="1">
          <mxGeometry x="414" y="30" width="80" height="80" as="geometry" />
        </mxCell>
        <mxCell id="MLQNLPn-X8Rku47YBQUl-12" style="edgeStyle=orthogonalEdgeStyle;rounded=0;orthogonalLoop=1;jettySize=auto;html=1;exitX=0.5;exitY=1;exitDx=0;exitDy=0;" edge="1" parent="1" source="MLQNLPn-X8Rku47YBQUl-10">
          <mxGeometry relative="1" as="geometry">
            <mxPoint x="460" y="280" as="targetPoint" />
          </mxGeometry>
        </mxCell>
        <mxCell id="MLQNLPn-X8Rku47YBQUl-10" value="Podaj a" style="whiteSpace=wrap;html=1;" vertex="1" parent="1">
          <mxGeometry x="400" y="170" width="120" height="60" as="geometry" />
        </mxCell>
        <mxCell id="MLQNLPn-X8Rku47YBQUl-14" style="edgeStyle=orthogonalEdgeStyle;rounded=0;orthogonalLoop=1;jettySize=auto;html=1;exitX=0;exitY=0.5;exitDx=0;exitDy=0;" edge="1" parent="1" source="MLQNLPn-X8Rku47YBQUl-13">
          <mxGeometry relative="1" as="geometry">
            <mxPoint x="360" y="390" as="targetPoint" />
          </mxGeometry>
        </mxCell>
        <mxCell id="MLQNLPn-X8Rku47YBQUl-16" style="edgeStyle=orthogonalEdgeStyle;rounded=0;orthogonalLoop=1;jettySize=auto;html=1;exitX=1;exitY=0.5;exitDx=0;exitDy=0;" edge="1" parent="1" source="MLQNLPn-X8Rku47YBQUl-13">
          <mxGeometry relative="1" as="geometry">
            <mxPoint x="560" y="390" as="targetPoint" />
          </mxGeometry>
        </mxCell>
        <mxCell id="MLQNLPn-X8Rku47YBQUl-13" value="a&amp;lt;0" style="rhombus;whiteSpace=wrap;html=1;" vertex="1" parent="1">
          <mxGeometry x="410" y="280" width="100" height="100" as="geometry" />
        </mxCell>
        <mxCell id="MLQNLPn-X8Rku47YBQUl-15" value="&lt;div&gt;tak&lt;/div&gt;&lt;div&gt;&lt;br&gt;&lt;/div&gt;" style="text;html=1;align=center;verticalAlign=middle;resizable=0;points=[];autosize=1;strokeColor=none;fillColor=none;" vertex="1" parent="1">
          <mxGeometry x="360" y="290" width="40" height="40" as="geometry" />
        </mxCell>
        <mxCell id="MLQNLPn-X8Rku47YBQUl-17" value="&lt;div&gt;nie&lt;/div&gt;&lt;div&gt;&lt;br&gt;&lt;/div&gt;" style="text;html=1;align=center;verticalAlign=middle;resizable=0;points=[];autosize=1;strokeColor=none;fillColor=none;" vertex="1" parent="1">
          <mxGeometry x="520" y="290" width="40" height="40" as="geometry" />
        </mxCell>
        <mxCell id="MLQNLPn-X8Rku47YBQUl-21" style="edgeStyle=orthogonalEdgeStyle;rounded=0;orthogonalLoop=1;jettySize=auto;html=1;exitX=0.5;exitY=1;exitDx=0;exitDy=0;entryX=0;entryY=0.5;entryDx=0;entryDy=0;" edge="1" parent="1" source="MLQNLPn-X8Rku47YBQUl-18" target="MLQNLPn-X8Rku47YBQUl-23">
          <mxGeometry relative="1" as="geometry">
            <mxPoint x="480" y="520" as="targetPoint" />
            <Array as="points">
              <mxPoint x="370" y="460" />
              <mxPoint x="480" y="460" />
              <mxPoint x="480" y="420" />
            </Array>
          </mxGeometry>
        </mxCell>
        <mxCell id="MLQNLPn-X8Rku47YBQUl-18" value="a=a*(-1)" style="whiteSpace=wrap;html=1;" vertex="1" parent="1">
          <mxGeometry x="310" y="390" width="120" height="60" as="geometry" />
        </mxCell>
        <mxCell id="MLQNLPn-X8Rku47YBQUl-22" value="koniec" style="ellipse;whiteSpace=wrap;html=1;" vertex="1" parent="1">
          <mxGeometry x="440" y="520" width="80" height="80" as="geometry" />
        </mxCell>
        <mxCell id="MLQNLPn-X8Rku47YBQUl-24" style="edgeStyle=orthogonalEdgeStyle;rounded=0;orthogonalLoop=1;jettySize=auto;html=1;exitX=0.5;exitY=1;exitDx=0;exitDy=0;entryX=0.5;entryY=0;entryDx=0;entryDy=0;" edge="1" parent="1" source="MLQNLPn-X8Rku47YBQUl-23" target="MLQNLPn-X8Rku47YBQUl-22">
          <mxGeometry relative="1" as="geometry" />
        </mxCell>
        <mxCell id="MLQNLPn-X8Rku47YBQUl-23" value="wyÅ›wietl a" style="whiteSpace=wrap;html=1;" vertex="1" parent="1">
          <mxGeometry x="520" y="390" width="120" height="60" as="geometry" />
        </mxCell>
      </root>
    </mxGraphModel>
  </diagram>
</mxfile>
